<mxfile host="app.diagrams.net" modified="2020-12-22T13:05:31.801Z" agent="5.0 (Windows NT 10.0; Win64; x64) AppleWebKit/537.36 (KHTML, like Gecko) Chrome/87.0.4280.88 Safari/537.36 Edg/87.0.664.66" etag="FwAIEHvM7adiGsih4bGw" version="14.1.1" type="github">
  <diagram id="0ubrcNWDQa43dK29l3Xf" name="第 1 页">
    <mxGraphModel dx="1038" dy="500" grid="1" gridSize="10" guides="1" tooltips="1" connect="1" arrows="1" fold="1" page="1" pageScale="1" pageWidth="1169" pageHeight="1654" math="0" shadow="0">
      <root>
        <mxCell id="0" />
        <mxCell id="1" parent="0" />
        <mxCell id="YOr1pMgfYP9v7rOEEXMd-1" value="" style="rounded=0;whiteSpace=wrap;html=1;" vertex="1" parent="1">
          <mxGeometry x="400" y="60" width="240" height="300" as="geometry" />
        </mxCell>
        <mxCell id="YOr1pMgfYP9v7rOEEXMd-4" value="" style="endArrow=classic;html=1;" edge="1" parent="1">
          <mxGeometry width="50" height="50" relative="1" as="geometry">
            <mxPoint x="640" y="165" as="sourcePoint" />
            <mxPoint x="730" y="165" as="targetPoint" />
          </mxGeometry>
        </mxCell>
        <mxCell id="YOr1pMgfYP9v7rOEEXMd-7" value="" style="endArrow=classic;html=1;" edge="1" parent="1">
          <mxGeometry width="50" height="50" relative="1" as="geometry">
            <mxPoint x="640" y="255" as="sourcePoint" />
            <mxPoint x="730" y="255" as="targetPoint" />
          </mxGeometry>
        </mxCell>
        <mxCell id="YOr1pMgfYP9v7rOEEXMd-14" value="" style="endArrow=classic;html=1;" edge="1" parent="1">
          <mxGeometry width="50" height="50" relative="1" as="geometry">
            <mxPoint x="309" y="170" as="sourcePoint" />
            <mxPoint x="399" y="170" as="targetPoint" />
          </mxGeometry>
        </mxCell>
        <mxCell id="YOr1pMgfYP9v7rOEEXMd-15" value="" style="endArrow=classic;html=1;" edge="1" parent="1">
          <mxGeometry width="50" height="50" relative="1" as="geometry">
            <mxPoint x="309" y="200" as="sourcePoint" />
            <mxPoint x="399" y="200" as="targetPoint" />
          </mxGeometry>
        </mxCell>
        <mxCell id="YOr1pMgfYP9v7rOEEXMd-16" value="" style="endArrow=classic;html=1;" edge="1" parent="1">
          <mxGeometry width="50" height="50" relative="1" as="geometry">
            <mxPoint x="309" y="230" as="sourcePoint" />
            <mxPoint x="399" y="230" as="targetPoint" />
          </mxGeometry>
        </mxCell>
        <mxCell id="YOr1pMgfYP9v7rOEEXMd-17" value="" style="endArrow=classic;html=1;" edge="1" parent="1">
          <mxGeometry width="50" height="50" relative="1" as="geometry">
            <mxPoint x="309" y="260" as="sourcePoint" />
            <mxPoint x="399" y="260" as="targetPoint" />
          </mxGeometry>
        </mxCell>
        <mxCell id="YOr1pMgfYP9v7rOEEXMd-18" value="" style="endArrow=classic;html=1;" edge="1" parent="1">
          <mxGeometry width="50" height="50" relative="1" as="geometry">
            <mxPoint x="309" y="290" as="sourcePoint" />
            <mxPoint x="399" y="290" as="targetPoint" />
          </mxGeometry>
        </mxCell>
        <mxCell id="YOr1pMgfYP9v7rOEEXMd-19" value="" style="endArrow=classic;html=1;" edge="1" parent="1">
          <mxGeometry width="50" height="50" relative="1" as="geometry">
            <mxPoint x="309" y="320" as="sourcePoint" />
            <mxPoint x="399" y="320" as="targetPoint" />
          </mxGeometry>
        </mxCell>
        <mxCell id="YOr1pMgfYP9v7rOEEXMd-22" value="" style="endArrow=classic;html=1;" edge="1" parent="1">
          <mxGeometry width="50" height="50" relative="1" as="geometry">
            <mxPoint x="309" y="110" as="sourcePoint" />
            <mxPoint x="399" y="110" as="targetPoint" />
          </mxGeometry>
        </mxCell>
        <mxCell id="YOr1pMgfYP9v7rOEEXMd-23" value="" style="endArrow=classic;html=1;" edge="1" parent="1">
          <mxGeometry width="50" height="50" relative="1" as="geometry">
            <mxPoint x="309" y="80" as="sourcePoint" />
            <mxPoint x="399" y="80" as="targetPoint" />
          </mxGeometry>
        </mxCell>
        <mxCell id="YOr1pMgfYP9v7rOEEXMd-24" value="" style="endArrow=classic;html=1;" edge="1" parent="1">
          <mxGeometry width="50" height="50" relative="1" as="geometry">
            <mxPoint x="309" y="140" as="sourcePoint" />
            <mxPoint x="399" y="140" as="targetPoint" />
          </mxGeometry>
        </mxCell>
        <mxCell id="YOr1pMgfYP9v7rOEEXMd-25" value="&lt;span style=&quot;font-size: 22px&quot;&gt;&lt;b&gt;Regfile&lt;/b&gt;&lt;/span&gt;" style="text;html=1;strokeColor=none;fillColor=none;align=center;verticalAlign=middle;whiteSpace=wrap;rounded=0;" vertex="1" parent="1">
          <mxGeometry x="500" y="30" width="40" height="20" as="geometry" />
        </mxCell>
        <mxCell id="YOr1pMgfYP9v7rOEEXMd-26" value="clk" style="text;html=1;strokeColor=none;fillColor=none;align=center;verticalAlign=middle;whiteSpace=wrap;rounded=0;" vertex="1" parent="1">
          <mxGeometry x="407" y="70" width="40" height="20" as="geometry" />
        </mxCell>
        <mxCell id="YOr1pMgfYP9v7rOEEXMd-27" value="raddr1[4:0]" style="text;html=1;strokeColor=none;fillColor=none;align=center;verticalAlign=middle;whiteSpace=wrap;rounded=0;" vertex="1" parent="1">
          <mxGeometry x="422" y="98" width="40" height="20" as="geometry" />
        </mxCell>
        <mxCell id="YOr1pMgfYP9v7rOEEXMd-28" value="raddr2[4:0]" style="text;html=1;strokeColor=none;fillColor=none;align=center;verticalAlign=middle;whiteSpace=wrap;rounded=0;" vertex="1" parent="1">
          <mxGeometry x="422" y="129" width="40" height="20" as="geometry" />
        </mxCell>
        <mxCell id="YOr1pMgfYP9v7rOEEXMd-29" value="&lt;font style=&quot;font-size: 11px&quot;&gt;re1&lt;/font&gt;" style="text;html=1;strokeColor=none;fillColor=none;align=center;verticalAlign=middle;whiteSpace=wrap;rounded=0;" vertex="1" parent="1">
          <mxGeometry x="404" y="160" width="40" height="20" as="geometry" />
        </mxCell>
        <mxCell id="YOr1pMgfYP9v7rOEEXMd-30" value="re2" style="text;html=1;strokeColor=none;fillColor=none;align=center;verticalAlign=middle;whiteSpace=wrap;rounded=0;" vertex="1" parent="1">
          <mxGeometry x="404" y="192" width="40" height="20" as="geometry" />
        </mxCell>
        <mxCell id="YOr1pMgfYP9v7rOEEXMd-31" value="rst" style="text;html=1;strokeColor=none;fillColor=none;align=center;verticalAlign=middle;whiteSpace=wrap;rounded=0;" vertex="1" parent="1">
          <mxGeometry x="404" y="221" width="40" height="20" as="geometry" />
        </mxCell>
        <mxCell id="YOr1pMgfYP9v7rOEEXMd-32" value="wdata[31:0]" style="text;html=1;strokeColor=none;fillColor=none;align=center;verticalAlign=middle;whiteSpace=wrap;rounded=0;" vertex="1" parent="1">
          <mxGeometry x="425" y="250" width="40" height="20" as="geometry" />
        </mxCell>
        <mxCell id="YOr1pMgfYP9v7rOEEXMd-33" value="waddr[4:0]" style="text;html=1;strokeColor=none;fillColor=none;align=center;verticalAlign=middle;whiteSpace=wrap;rounded=0;" vertex="1" parent="1">
          <mxGeometry x="421" y="282" width="40" height="20" as="geometry" />
        </mxCell>
        <mxCell id="YOr1pMgfYP9v7rOEEXMd-34" value="we" style="text;html=1;strokeColor=none;fillColor=none;align=center;verticalAlign=middle;whiteSpace=wrap;rounded=0;" vertex="1" parent="1">
          <mxGeometry x="407" y="311" width="40" height="20" as="geometry" />
        </mxCell>
        <mxCell id="YOr1pMgfYP9v7rOEEXMd-38" style="edgeStyle=orthogonalEdgeStyle;rounded=0;orthogonalLoop=1;jettySize=auto;html=1;exitX=0.5;exitY=1;exitDx=0;exitDy=0;" edge="1" parent="1">
          <mxGeometry relative="1" as="geometry">
            <mxPoint x="604" y="118" as="sourcePoint" />
            <mxPoint x="604" y="118" as="targetPoint" />
          </mxGeometry>
        </mxCell>
        <mxCell id="YOr1pMgfYP9v7rOEEXMd-39" value="radata2[31:0]" style="text;html=1;strokeColor=none;fillColor=none;align=center;verticalAlign=middle;whiteSpace=wrap;rounded=0;" vertex="1" parent="1">
          <mxGeometry x="571" y="248" width="40" height="20" as="geometry" />
        </mxCell>
        <mxCell id="YOr1pMgfYP9v7rOEEXMd-40" style="edgeStyle=orthogonalEdgeStyle;rounded=0;orthogonalLoop=1;jettySize=auto;html=1;exitX=0.5;exitY=1;exitDx=0;exitDy=0;" edge="1" parent="1" source="YOr1pMgfYP9v7rOEEXMd-39" target="YOr1pMgfYP9v7rOEEXMd-39">
          <mxGeometry relative="1" as="geometry" />
        </mxCell>
        <mxCell id="YOr1pMgfYP9v7rOEEXMd-41" style="edgeStyle=orthogonalEdgeStyle;rounded=0;orthogonalLoop=1;jettySize=auto;html=1;exitX=0.5;exitY=1;exitDx=0;exitDy=0;" edge="1" parent="1">
          <mxGeometry relative="1" as="geometry">
            <mxPoint x="585" y="235.5" as="sourcePoint" />
            <mxPoint x="585" y="235.5" as="targetPoint" />
          </mxGeometry>
        </mxCell>
        <mxCell id="YOr1pMgfYP9v7rOEEXMd-43" style="edgeStyle=orthogonalEdgeStyle;rounded=0;orthogonalLoop=1;jettySize=auto;html=1;exitX=0.5;exitY=1;exitDx=0;exitDy=0;" edge="1" parent="1">
          <mxGeometry relative="1" as="geometry">
            <mxPoint x="598" y="266" as="sourcePoint" />
            <mxPoint x="598" y="266" as="targetPoint" />
          </mxGeometry>
        </mxCell>
        <mxCell id="YOr1pMgfYP9v7rOEEXMd-45" style="edgeStyle=orthogonalEdgeStyle;rounded=0;orthogonalLoop=1;jettySize=auto;html=1;exitX=0.5;exitY=1;exitDx=0;exitDy=0;" edge="1" parent="1">
          <mxGeometry relative="1" as="geometry">
            <mxPoint x="599" y="296" as="sourcePoint" />
            <mxPoint x="599" y="296" as="targetPoint" />
          </mxGeometry>
        </mxCell>
        <mxCell id="YOr1pMgfYP9v7rOEEXMd-46" style="edgeStyle=orthogonalEdgeStyle;rounded=0;orthogonalLoop=1;jettySize=auto;html=1;exitX=0.5;exitY=1;exitDx=0;exitDy=0;" edge="1" parent="1">
          <mxGeometry relative="1" as="geometry">
            <mxPoint x="605" y="330" as="sourcePoint" />
            <mxPoint x="605" y="330" as="targetPoint" />
          </mxGeometry>
        </mxCell>
        <mxCell id="YOr1pMgfYP9v7rOEEXMd-48" style="edgeStyle=orthogonalEdgeStyle;rounded=0;orthogonalLoop=1;jettySize=auto;html=1;exitX=0.5;exitY=1;exitDx=0;exitDy=0;" edge="1" parent="1">
          <mxGeometry relative="1" as="geometry">
            <mxPoint x="600" y="326" as="sourcePoint" />
            <mxPoint x="600" y="326" as="targetPoint" />
          </mxGeometry>
        </mxCell>
        <mxCell id="YOr1pMgfYP9v7rOEEXMd-56" value="&lt;span style=&quot;color: rgb(0, 0, 0); font-family: helvetica; font-size: 12px; font-style: normal; font-weight: 400; letter-spacing: normal; text-align: center; text-indent: 0px; text-transform: none; word-spacing: 0px; background-color: rgb(248, 249, 250); display: inline; float: none;&quot;&gt;radata1[31:0]&lt;/span&gt;" style="text;whiteSpace=wrap;html=1;" vertex="1" parent="1">
          <mxGeometry x="555" y="150" width="100" height="30" as="geometry" />
        </mxCell>
      </root>
    </mxGraphModel>
  </diagram>
</mxfile>
